<svg xmlns="http://www.w3.org/2000/svg" xmlns:xlink="http://www.w3.org/1999/xlink" width="24" height="24" viewBox="0 0 24 24">
  <defs>
    <clipPath id="clip-path">
      <rect id="Rectangle_1" data-name="Rectangle 1" width="24" height="24" fill="#fff"/>
    </clipPath>
  </defs>
  <g id="EGP" clip-path="url(#clip-path)">
    <path id="Path_1" data-name="Path 1" d="M12,24A12,12,0,1,0,0,12,12,12,0,0,0,12,24Z" fill="#007664" opacity="0.1"/>
    <path id="Path_2" data-name="Path 2" d="M18,6.5H6A1.5,1.5,0,0,0,4.5,8v8A1.5,1.5,0,0,0,6,17.5H18A1.5,1.5,0,0,0,19.5,16V8A1.5,1.5,0,0,0,18,6.5Z" fill="none" stroke="#007664" stroke-width="1"/>
    <path id="Path_3" data-name="Path 3" d="M6.974,10.43h2.67v.66H7.759v.765h1.73v.61H7.759v.875H9.684V14H6.974ZM12.8,13.6a1.2,1.2,0,0,1-.465.38,1.292,1.292,0,0,1-.515.11,1.8,1.8,0,0,1-.74-.145,1.614,1.614,0,0,1-.55-.395,1.734,1.734,0,0,1-.345-.59,2.166,2.166,0,0,1-.12-.725,2.238,2.238,0,0,1,.12-.74,1.778,1.778,0,0,1,.345-.6,1.583,1.583,0,0,1,.55-.4,1.8,1.8,0,0,1,.74-.145,1.666,1.666,0,0,1,.53.085,1.432,1.432,0,0,1,.465.24,1.344,1.344,0,0,1,.34.395,1.288,1.288,0,0,1,.17.54h-.75a.741.741,0,0,0-.275-.45.777.777,0,0,0-.48-.15.9.9,0,0,0-.45.1.821.821,0,0,0-.3.275,1.217,1.217,0,0,0-.17.39,2.048,2.048,0,0,0-.05.455,1.94,1.94,0,0,0,.05.44,1.227,1.227,0,0,0,.17.38.883.883,0,0,0,.3.275.935.935,0,0,0,.45.1.766.766,0,0,0,.85-.77h-.79V12.07h1.5V14h-.5Zm1.21-3.17h1.61a1.454,1.454,0,0,1,.57.1,1.015,1.015,0,0,1,.38.255.94.94,0,0,1,.215.37,1.291,1.291,0,0,1,.07.42,1.3,1.3,0,0,1-.07.425.944.944,0,0,1-.215.365,1.067,1.067,0,0,1-.38.26,1.522,1.522,0,0,1-.57.1H14.8V14h-.79Zm.785,1.68h.61a1.652,1.652,0,0,0,.26-.02.632.632,0,0,0,.22-.075.423.423,0,0,0,.15-.165.66.66,0,0,0,0-.55.386.386,0,0,0-.15-.16.576.576,0,0,0-.22-.08,1.652,1.652,0,0,0-.26-.02h-.6Z" fill="#007664"/>
  </g>
</svg>
