<svg xmlns="http://www.w3.org/2000/svg" width="121.065" height="122.667" viewBox="0 0 121.065 122.667">
  <g id="Group_203" data-name="Group 203" transform="translate(4340.5 -814)">
    <path id="Path_2626" data-name="Path 2626" d="M262.974,593.442c1.7,0,3.29-.064,4.871.022a2.224,2.224,0,0,1,1.868,2.441c.016,1.865,0,3.731,0,5.6v.979H274.2c-1.184-.678-.883-1.682-.9-2.6-.017-1.152-.064-2.309.022-3.455a3.506,3.506,0,0,1,.564-1.656,3.566,3.566,0,0,1,4.019-1.049,2.9,2.9,0,0,1,2.165,3.1q0,3.622,0,7.243V605H244.323c-.016-.277-.045-.543-.045-.809q0-4.239,0-8.478c0-1.44.579-2.086,2-2.156a26.985,26.985,0,0,1,2.96,0,1.656,1.656,0,0,1,1.724,1.875c.011,2.329,0,4.659,0,7.06h5.771V593.48h2.444v9.012h3.8Zm12.812,9.017c1.8.278,1.8.278,1.8-1.324q0-.983,0-1.966c0-.874.008-1.748-.009-2.622a.8.8,0,0,0-.893-.848.781.781,0,0,0-.892.839C275.783,598.5,275.786,600.463,275.786,602.458Zm-10.334-6.422c0,1.761,0,3.488,0,5.215,0,1.222.531,1.564,1.8,1.126,0-1.681,0-3.381,0-5.08C267.246,596.03,266.867,595.743,265.452,596.036ZM248.5,602.508c0-1.2,0-2.3,0-3.393a17.517,17.517,0,0,0-.046-2.461,1.251,1.251,0,0,0-.8-.818c-.215-.054-.8.4-.808.644-.067,1.99-.038,3.983-.038,6.028Z" transform="translate(-4564.799 268.134)" fill="#fff"/>
    <path id="Path_2627" data-name="Path 2627" d="M626.8,604.425H603.822v4.849H601.39V592.914h2.392v2.318c0,1.975.02,3.95-.012,5.925-.009.591.132.844.774.809.923-.05,1.852-.013,2.879-.013V592.9h2.417l.166,1.2a2.68,2.68,0,0,0,.794-.3,5.025,5.025,0,0,1,3.712-.967c1.875.047,1.877.011,1.877,1.926v7.135h3.252v-9c1.859,0,3.609-.073,5.349.029a2.182,2.182,0,0,1,1.789,2.27C626.829,598.224,626.8,601.264,626.8,604.425Zm-12.953-9.048c-.177-.024-.282-.039-.388-.052-1.354-.17-2.231.948-3.4,1.275-.061.017-.112.188-.112.288-.007,1.664,0,3.329,0,5.009h3.907Zm8.472,6.573a10.152,10.152,0,0,0,1.376-.019c.176-.026.458-.254.461-.394.029-1.754.055-3.51-.028-5.261-.013-.266-.579-.7-.891-.7s-.865.439-.876.7C622.279,598.133,622.315,599.991,622.315,601.95Z" transform="translate(-4863.104 268.634)" fill="#fff"/>
    <path id="Path_2628" data-name="Path 2628" d="M476.429,579.282h-2.446V562.86h2.4v9.03h3.831V556.768h2.413v17.655h-6.2Z" transform="translate(-4756.679 298.749)" fill="#fff"/>
    <path id="Path_2629" data-name="Path 2629" d="M545.641,574.457h-2.369V556.842h2.369Z" transform="translate(-4814.557 298.687)" fill="#fff"/>
    <path id="Path_2630" data-name="Path 2630" d="M317.673,671.026a1.512,1.512,0,0,1-1.528,1.505,1.517,1.517,0,0,1,.022-3.032A1.514,1.514,0,0,1,317.673,671.026Z" transform="translate(-4623.617 204.583)" fill="#fff"/>
    <path id="Path_2631" data-name="Path 2631" d="M295.661,669.491a1.516,1.516,0,1,1-1.482,1.55A1.559,1.559,0,0,1,295.661,669.491Z" transform="translate(-4606.485 204.59)" fill="#fff"/>
    <path id="Path_2632" data-name="Path 2632" d="M247.878,568.927a1.49,1.49,0,0,1-2.979.028,1.49,1.49,0,1,1,2.979-.028Z" transform="translate(-4565.32 289.856)" fill="#fff"/>
    <path id="Path_2633" data-name="Path 2633" d="M422.749,568.881a1.488,1.488,0,0,1-2.975.107,1.489,1.489,0,1,1,2.975-.107Z" transform="translate(-4711.396 289.863)" fill="#fff"/>
    <path id="Path_2634" data-name="Path 2634" d="M268.113,568.913a1.516,1.516,0,0,1-3.033-.011,1.516,1.516,0,0,1,3.033.011Z" transform="translate(-4582.178 289.868)" fill="#fff"/>
    <path id="Path_2635" data-name="Path 2635" d="M441.471,570.412a1.49,1.49,0,0,1-1.487-1.534,1.512,1.512,0,0,1,1.559-1.471,1.492,1.492,0,0,1,1.438,1.5A1.468,1.468,0,0,1,441.471,570.412Z" transform="translate(-4728.277 289.863)" fill="#fff"/>
    <rect id="Rectangle_177" data-name="Rectangle 177" width="84.227" height="1.317" transform="translate(-4320.524 849.901)" fill="#fff"/>
    <rect id="Rectangle_178" data-name="Rectangle 178" width="0.659" height="5.503" transform="translate(-4274.129 845.057)" fill="#fff"/>
    <rect id="Rectangle_179" data-name="Rectangle 179" width="0.659" height="5.503" transform="translate(-4282.939 845.057)" fill="#fff"/>
    <rect id="Rectangle_180" data-name="Rectangle 180" width="0.659" height="8.385" transform="translate(-4278.576 842.175)" fill="#fff"/>
    <path id="Path_2636" data-name="Path 2636" d="M519.02,477.041a1.77,1.77,0,1,1,1.771-1.77A1.772,1.772,0,0,1,519.02,477.041Zm0-2.964a1.194,1.194,0,1,0,1.194,1.194A1.2,1.2,0,0,0,519.02,474.076Z" transform="translate(-4792.82 368.304)" fill="#fff"/>
    <path id="Path_2637" data-name="Path 2637" d="M465.52,477.041a1.77,1.77,0,1,1,1.77-1.77A1.772,1.772,0,0,1,465.52,477.041Zm0-2.964a1.194,1.194,0,1,0,1.194,1.194A1.2,1.2,0,0,0,465.52,474.076Z" transform="translate(-4748.13 368.304)" fill="#fff"/>
    <path id="Path_2638" data-name="Path 2638" d="M238.279,481.92a3.335,3.335,0,1,1,3.335-3.335A3.339,3.339,0,0,1,238.279,481.92Zm0-5.352a2.017,2.017,0,1,0,2.017,2.017A2.02,2.02,0,0,0,238.279,476.567Z" transform="translate(-4557.005 366.842)" fill="#fff"/>
    <path id="Path_2639" data-name="Path 2639" d="M727.278,481.92a3.335,3.335,0,1,1,3.335-3.335A3.339,3.339,0,0,1,727.278,481.92Zm0-5.352a2.017,2.017,0,1,0,2.017,2.017A2.02,2.02,0,0,0,727.278,476.567Z" transform="translate(-4965.474 366.842)" fill="#fff"/>
    <path id="Path_2640" data-name="Path 2640" d="M492.02,461.041a1.77,1.77,0,1,1,1.77-1.77A1.772,1.772,0,0,1,492.02,461.041Zm0-2.964a1.194,1.194,0,1,0,1.194,1.194A1.2,1.2,0,0,0,492.02,458.077Z" transform="translate(-4770.267 381.669)" fill="#fff"/>
    <path id="Path_2641" data-name="Path 2641" d="M409.333,323.66V304.667h29.7v18.06l-1.811-1.208-5.654,5.27-7.054-6.972-6.889,6.972-5.874-5.435Z" transform="translate(-4702.675 509.333)" fill="#fff"/>
    <path id="Path_2642" data-name="Path 2642" d="M349.09,413.008H327.246l-15.535-15.292L296.5,413.008H274.289v-1.317h21.664L311.7,395.858l16.084,15.833h21.3Z" transform="translate(-4589.87 433.16)" fill="#fff"/>
    <path id="Path_2643" data-name="Path 2643" d="M567.372,414.328h-8.835l-8.134-8.081-4.847,4.672-.914-.949,5.775-5.566,8.664,8.607h8.292Z" transform="translate(-4815.7 426.021)" fill="#fff"/>
    <path id="Path_2644" data-name="Path 2644" d="M330.252,414.328h-8.835v-1.318h8.292l8.663-8.607,5.775,5.566-.914.949-4.847-4.672Z" transform="translate(-4629.237 426.021)" fill="#fff"/>
    <rect id="Rectangle_181" data-name="Rectangle 181" width="18.994" height="1.812" transform="translate(-4288.401 816.717)" fill="#007664"/>
    <rect id="Rectangle_182" data-name="Rectangle 182" width="18.994" height="1.812" transform="translate(-4288.401 823.799)" fill="#007664" opacity="0.3"/>
    <path id="Path_2645" data-name="Path 2645" d="M409.333,304.667h4.941l-4.941,5.709Z" transform="translate(-4702.675 509.333)" fill="#ba9742"/>
    <rect id="Rectangle_183" data-name="Rectangle 183" width="18.994" height="1.812" transform="translate(-4288.401 820.258)" fill="#007664" opacity="0.6"/>
    <path id="Path_2871" data-name="Path 2871" d="M-48.084.193h2.558V2.962h-5.327v-9.63h-1.734a2.558,2.558,0,0,0-1.987.74,2.822,2.822,0,0,0-.655,2.03V5.668h-6.406q-6.691,0-6.691-6.448V-5.367h2.78v4.3a3.657,3.657,0,0,0,1.189,3.028,5.154,5.154,0,0,0,3.314.957H-58V-3.4a5.847,5.847,0,0,1,1.5-4.4A6.086,6.086,0,0,1-52.09-9.268h4.006ZM-63.305,8.279a1.788,1.788,0,0,1,1.237-.444,1.788,1.788,0,0,1,1.237.444,1.45,1.45,0,0,1,.5,1.131,1.442,1.442,0,0,1-.5,1.168A1.857,1.857,0,0,1-62.068,11a1.852,1.852,0,0,1-1.226-.423A1.432,1.432,0,0,1-63.8,9.41,1.45,1.45,0,0,1-63.305,8.279Zm5.571-.444a1.8,1.8,0,0,1,1.242.439A1.452,1.452,0,0,1-56,9.41a1.442,1.442,0,0,1-.5,1.168A1.857,1.857,0,0,1-57.735,11a1.852,1.852,0,0,1-1.226-.423,1.432,1.432,0,0,1-.507-1.163,1.45,1.45,0,0,1,.5-1.131A1.788,1.788,0,0,1-57.735,7.835ZM-42.4-11.456a1.862,1.862,0,0,1-1.231-.418,1.423,1.423,0,0,1-.5-1.157,1.466,1.466,0,0,1,.5-1.136,1.775,1.775,0,0,1,1.237-.449,1.775,1.775,0,0,1,1.237.449,1.466,1.466,0,0,1,.5,1.136,1.43,1.43,0,0,1-.5,1.157A1.857,1.857,0,0,1-42.4-11.456Zm4.334,0a1.862,1.862,0,0,1-1.231-.418,1.423,1.423,0,0,1-.5-1.157,1.466,1.466,0,0,1,.5-1.136,1.775,1.775,0,0,1,1.237-.449,1.763,1.763,0,0,1,1.237.444,1.476,1.476,0,0,1,.486,1.142,1.437,1.437,0,0,1-.492,1.157A1.836,1.836,0,0,1-38.063-11.456ZM-45.97,2.962V.193h4.239V-9.268h2.759V2.962Zm11.966,0V-14.6h2.748V2.962Zm6.173,4.767a7.658,7.658,0,0,1-1.755-.2l-.285-2.4q1.194.106,1.755.106,1.966,0,1.966-2.315V-9.268h2.769V2.466a10.012,10.012,0,0,1-.275,2.547,3.648,3.648,0,0,1-.851,1.623,3.2,3.2,0,0,1-1.374.846A6.631,6.631,0,0,1-27.831,7.73ZM-17.43.193h3.679V2.962h-6.427V-14.6h2.748ZM-7.2-11.435a1.862,1.862,0,0,1-1.231-.418,1.423,1.423,0,0,1-.5-1.157,1.466,1.466,0,0,1,.5-1.136A1.775,1.775,0,0,1-7.2-14.6a1.775,1.775,0,0,1,1.237.449,1.466,1.466,0,0,1,.5,1.136,1.43,1.43,0,0,1-.5,1.157A1.857,1.857,0,0,1-7.2-11.435Zm4.334,0a1.862,1.862,0,0,1-1.231-.418,1.423,1.423,0,0,1-.5-1.157,1.466,1.466,0,0,1,.5-1.136A1.775,1.775,0,0,1-2.864-14.6a1.763,1.763,0,0,1,1.237.444,1.476,1.476,0,0,1,.486,1.142,1.437,1.437,0,0,1-.492,1.157A1.836,1.836,0,0,1-2.864-11.435ZM-1.68.193H.878V2.962H-13.973V.193h2.706a6.126,6.126,0,0,1-.909-3.309v-.032a5.58,5.58,0,0,1,1.945-4.44A7.581,7.581,0,0,1-5.094-9.268H-1.68Zm-4.006,0h1.258V-6.519H-5.686a4.193,4.193,0,0,0-2.8.9A3.057,3.057,0,0,0-9.555-3.147v.032A2.966,2.966,0,0,0-8.471-.7,4.234,4.234,0,0,0-5.686.193Zm11.617,0H12.77V2.962H.434V.193H2.929a12.673,12.673,0,0,1-.867-4.112A5.63,5.63,0,0,1,3.648-8.174,5.808,5.808,0,0,1,7.855-9.7a11.457,11.457,0,0,1,4.482,1.1l-.909,2.558a8.494,8.494,0,0,0-3.372-.909,3.3,3.3,0,0,0-2.442.941,3.471,3.471,0,0,0-.941,2.569A6.461,6.461,0,0,0,5.931.193Z" transform="translate(-4251.722 925.671)" fill="#fff"/>
    <path id="Line_77" data-name="Line 77" d="M119.065,1H0A1,1,0,0,1-1,0,1,1,0,0,1,0-1H119.065a1,1,0,0,1,1,1A1,1,0,0,1,119.065,1Z" transform="translate(-4339.5 895.965)" fill="#ba9742"/>
  </g>
</svg>
